<svg id="Layer_1" data-name="Layer 1" xmlns="http://www.w3.org/2000/svg" viewBox="0 0 331.2 312.42"><path d="M460,427.52c4.39-29.57.47-61.26-12.1-88.49a72.3,72.3,0,0,0-8.55-14.16A153.67,153.67,0,0,0,415.48,300C384.46,274.62,347,263,307,263c-52.68.06-111.19,16.81-147.36,57-18.12,20.12-23.57,47.2-27,73.29-1.67,12.69-1.83,25.22-2,37.94,0,.49,0,1,0,1.47a123.18,123.18,0,0,0,.51,14c5,55,41.1,101.69,93.72,118.59,34.59,11.11,72.31,13.7,107.7,4.94,43-10.65,82.06-31.18,109-67.43,8.68-11.67,15.74-25.76,16.9-40.43.45-5.67-1.49-11.06-1.06-16.69C457.81,439.54,459.09,433.54,460,427.52ZM234.43,552.77a145.36,145.36,0,0,1-32.84-15c-4.79-3-8.93-6.88-13.1-10.65A133.82,133.82,0,0,1,165.41,499a105.23,105.23,0,0,1-12.8-31.49,175.19,175.19,0,0,1-4.2-29.06c-.23-3.26-.78-6.51-.25-10.37a77.38,77.38,0,0,0,5,20.27,57.32,57.32,0,0,1,2.31,7.41c3.61,14.12,8.16,27.9,16.14,40.29A147.39,147.39,0,0,0,200,528.51a163.18,163.18,0,0,0,23.39,16.06,161.27,161.27,0,0,0,16.55,8.49,14.58,14.58,0,0,1,3.9,2.39C240.68,554.57,237.51,553.77,234.43,552.77ZM168.08,383.24l-.08,0-.24-.68s0,0,0,0c.73-1.63,1.45-3.26,2.2-4.9a96.84,96.84,0,0,1,10.7-18.36c3.49-4.72,7-9.39,10.73-13.94,5.94-7.31,13-13.45,20.41-19.23,8.71-6.82,17.78-13.14,27.12-19.1a96.06,96.06,0,0,1,20.72-10.61,71.93,71.93,0,0,1,24.55-4.33q9,.12,17.94.12c10.47,0,20.33,2.69,29.86,6.72a102,102,0,0,1,15.37,7.85c.87.55,2,.94,2.59,2.41-2.15-.57-4-1-5.8-1.55A170.09,170.09,0,0,0,319,302.38c-12.92-1.66-25.66-1.11-38.13,3a208.28,208.28,0,0,0-27.38,10.77,306.26,306.26,0,0,0-29,16c-6.28,4-12.57,8-18.59,12.41a188.41,188.41,0,0,0-36,36.64,2.91,2.91,0,0,0-.71.65l-.66.84a4,4,0,0,1-.83-.23C167.88,382.79,168,383,168.08,383.24Zm8.19,14.22c7.67-14.63,19.22-26.88,31.51-37.9,26.2-23.51,58-42.92,93-45.8,24.19-2,48.74,4.13,70,15.9,14.94,8.31,28.48,19.53,38,33.72S423.6,394.89,422,411.89a27.33,27.33,0,0,0-29.67.26c-5.27,3.62-9.05,9-13.68,13.35a48.21,48.21,0,0,1-16.49,10.27c-4.63,1.73-10,2.65-14.39.28-7.18-3.91-7.06-12-3.75-18.55,2.5-5,6.64-8.94,11.11-12.15,2.31-1.66,4.74-3.12,7.2-4.55a15.69,15.69,0,0,1,5.45-2c1.75-.26,3.59-.53,4.85-1.92a6,6,0,0,0,1.08-5.26,4.56,4.56,0,0,0-.18-.75s0-.06,0-.08-.06-.21-.1-.31c-2-5-8.77-3.72-12.77-2.37-7.64,2.59-14.33,7.33-20.1,12.88s-11.85,12-14.71,19.59a52.47,52.47,0,0,0-1.87,6.47,6.3,6.3,0,0,1-2.19,3.68c-4.21,3.4-8.23,6.76-14,6.29a5.8,5.8,0,0,1-2.83-.83c-1.2-.82-1.36-2.13-1.34-3.47.13-7,2.83-13.22,5.1-19.67,2.06-5.86,3.88-11.82,5.65-17.78,3.33-11.23,7-22.36,10.22-33.62,1.28-4.46,3.7-9.63,3.49-14.31-.14-2.9-2.06-6.62-5.49-6.17-2.59.33-4.08,3.06-5.14,5.47-4.62,10.49-9,21.1-14,31.41a6,6,0,0,1-6.4,4.16l-60.54,4.6a3.74,3.74,0,0,1-3-.66c-.86-.87-.63-2.3-.35-3.49,2.29-8.83,6.58-17.71,4.9-26.69-.59-3.14-3.1-6.76-6.16-5.82-2,.59-2.9,2.8-3.49,4.76-3.53,12-3.92,26.53-14.16,33.63-7.51,5.21-17.54,4.21-26.31,6.65-4.65,1.31-9.82,5.8-7.55,10.07,1.71,3.28,6.32,3.3,10,2.81,7-.94,14.06-2.1,21-3.53a299.48,299.48,0,0,1-7.76,41.78S193,468.67,174.9,457.1a32.17,32.17,0,0,1-5.55-11.74C165.08,429.42,168.59,412.07,176.27,397.46Zm103.9,1.39c-8.12,6.1-15.55,13.94-18.94,23.71a28.25,28.25,0,0,0,1.1,22.09c.31.61-13.55,5.26-14.84,5.55a56.65,56.65,0,0,1-17.85,1.16,6.44,6.44,0,0,1-3.17-.9,5.87,5.87,0,0,1-1.85-2.61c-5.62-13.33,2.28-29.37,3.61-42.82.2-2.06.81-3.14,3-3.47,8.18-1.2,16.43-2.16,24.67-3,5.37-.61,10.74-1.28,16.13-1.77,3.14-.27,6.28-.27,9.45-.37.26,0,.55.24,1.14.49C281.7,397.64,280.94,398.26,280.17,398.85Zm7.31,6.49a7.67,7.67,0,0,1,5.95-1.1.45.45,0,0,1,.25.12.4.4,0,0,1,0,.3,125.67,125.67,0,0,1-2.35,12.62c-.77,3.51-1.06,7.73-3,10.81a24.82,24.82,0,0,1-6.32,6.68,23.62,23.62,0,0,1-3.88,2.28c-1.08.51-2.7,1.78-3.92,1.27-1.8-.74-1.94-3.63-2-5.25-.22-8.28,3.53-15.91,9-22C283,409.2,285.07,406.81,287.48,405.34Zm-40.64,56.37a109.85,109.85,0,0,0,23.27-9.12,8.68,8.68,0,0,1,5.14-1.13,17.69,17.69,0,0,0,15.27-5.73c.38-.41.81-.78,1.32-1.23a6.1,6.1,0,0,1,1.13.72,17.19,17.19,0,0,0,10.08,5.1,35.76,35.76,0,0,0,11.12.12,22.55,22.55,0,0,0,9.94-4.06c1.39-1,2.57-2.31,4.06-2.14a4.39,4.39,0,0,1,1.06.28s.47.31,1.35.8c.31.18.69.37,1.1.59.18.08.37.19.57.27,7.49,3,14.7,5.18,22.9,4.69,13.59-.8,25.39-8.39,34-18.55,2.37-2.78,4.07-6.31,7.11-8.49,3.71-2.65,9.16-1.94,13.34-.86a64.34,64.34,0,0,1,10.8,4.23c5.35,2.45-1.29,15.59-2.71,19.38a84.7,84.7,0,0,1-8.8,17.15,83.27,83.27,0,0,1-27.47,25.86c-41.62,24.12-93,24.65-138.66,13.69-17.1-4.1-33.65-11.39-47.53-22.29-3-2.38-6.86-5.08-9.15-8.22,1.72,2.37,8.78-.12,10.86-1a15.19,15.19,0,0,0,5.49-4.08c2.76-3.17,4.43-7.13,7.51-10.49a2.36,2.36,0,0,1,1-.74,2.12,2.12,0,0,1,1.19.19c3.67,1.3,6.34,4.63,10.16,5.55A49,49,0,0,0,246.84,461.71Zm195.87-10.49c-.47,6.24-2.9,12.28-4.68,18.24-2.73,9.17-4.41,18.76-9.06,27.11-3.94,7-9.77,12.75-15.9,18-17.77,15.16-40,29-62.9,34.65-23.82,5.88-49.59,5.29-73.45.08s-45.86-16.41-64.8-31.47A116.53,116.53,0,0,1,192.55,498c-.2-.27-.3-.6-.47-.88l.39-.41a17.2,17.2,0,0,1,1.7.9,147.63,147.63,0,0,0,34.51,16.16,112.14,112.14,0,0,0,16,4.15q10.83,1.83,21.78,3.08c16.28,1.89,32.65,1.69,49,1.28a113.08,113.08,0,0,0,11.75-1.26,209.82,209.82,0,0,0,38.9-8.8c3.61-1.22,7.23-2.55,10.78-4A94.54,94.54,0,0,0,434.32,439c.08-.4.16-.77.24-1.12,3.08,2.76,5.13,4.92,5.66,5.47,0,0,.06.06.06.08A10.81,10.81,0,0,1,442.71,451.22Zm5.3-24.6a13.38,13.38,0,0,1-.41,1.9c-.14-.14-.26-.3-.42-.45-.66-.73-1.31-1.45-2-2.14,0,0,0,0,0,0a46.87,46.87,0,0,0-7.76-7.53,2.86,2.86,0,0,1-1.35-2.55c0-1.68-.12-3.37-.14-5.06a93.73,93.73,0,0,0-3-22.09,117.41,117.41,0,0,0-5.71-17.32,101.3,101.3,0,0,0-13.6-22.9,91.65,91.65,0,0,0-8.69-9.74c-7.49-14.83-20.27-30.3-42-39.06v0a91.47,91.47,0,0,0-18-9.88c-5-2-10.13-3.85-15.19-5.75a72.84,72.84,0,0,0-23.88-4.29c-8.22-.22-16.49-.37-24.69,0a87.18,87.18,0,0,0-39.39,11.1,347.72,347.72,0,0,0-30.16,19.35c-6,4.23-11.92,8.55-17.52,13.29a159.77,159.77,0,0,0-29.22,32.71,89.57,89.57,0,0,0-14.37,34.41,14.59,14.59,0,0,1-1.2,3.94,14.49,14.49,0,0,1-.15-2.06c.45-5.06.8-10.12,1.41-15.16A139.49,139.49,0,0,1,153.92,358a82,82,0,0,1,22.2-38.47,57,57,0,0,1,7.21-5.61c9-6.41,18.73-11.72,28.45-17a169.56,169.56,0,0,1,18.33-8.7,178.22,178.22,0,0,1,24.61-7.39,245.91,245.91,0,0,1,36.37-5.91c2.81-.25,5.63-.29,8.45-.33,5.53,0,11.06-.06,16.61.1A137.37,137.37,0,0,1,336,276.8a187,187,0,0,1,30.43,7.92,120.13,120.13,0,0,1,23,11.25,145.82,145.82,0,0,1,35.06,31.08c1.86,2.24,3.7,4.53,5.47,6.88a69,69,0,0,1,11.31,23.28,138.89,138.89,0,0,1,4.16,21.58c.92,7.71,2.06,15.43,2.78,23.16A127.92,127.92,0,0,1,448,426.62Z" transform="translate(-130.52 -263.01)"/></svg>